<svg fill="#000000" height="200px" width="200px" version="1.1" id="Layer_1" xmlns="http://www.w3.org/2000/svg" xmlns:xlink="http://www.w3.org/1999/xlink" viewBox="0 0 512 512" xml:space="preserve"><g id="SVGRepo_bgCarrier" stroke-width="0"></g><g id="SVGRepo_tracerCarrier" stroke-linecap="round" stroke-linejoin="round"></g><g id="SVGRepo_iconCarrier"> <g> <g> <path d="M501.801,106.584H368.858C363.684,48.859,315.048,3.461,256,3.461S148.316,48.859,143.142,106.584H10.199 C4.566,106.584,0,111.151,0,116.783V498.34c0,5.632,4.566,10.199,10.199,10.199h491.602c5.633,0,10.199-4.567,10.199-10.199 V116.783C512,111.151,507.434,106.584,501.801,106.584z M256,23.859c47.791,0,87.266,36.267,92.362,82.725H163.638 C168.734,60.126,208.209,23.859,256,23.859z M20.398,178.439h98.903v223.293H20.398V178.439z M491.602,488.142H20.398v-66.011 h471.203V488.142z M139.7,401.732V178.439h106.101v223.293H139.7z M266.199,401.732V178.439H372.3v223.293H266.199z M491.602,401.732h-98.903V178.439h98.903V401.732z M491.602,158.041H20.398v-31.059h471.203V158.041z"></path> </g> </g> <g> <g> <path d="M215.203,453.865H45.896c-5.633,0-10.199,4.567-10.199,10.199c0,5.632,4.566,10.199,10.199,10.199h169.307 c5.633,0,10.199-4.567,10.199-10.199C225.402,458.432,220.836,453.865,215.203,453.865z"></path> </g> </g> <g> <g> <path d="M254.98,453.865h-6.12c-5.633,0-10.199,4.567-10.199,10.199c0,5.632,4.566,10.199,10.199,10.199h6.12 c5.633,0,10.199-4.567,10.199-10.199C265.179,458.432,260.613,453.865,254.98,453.865z"></path> </g> </g> </g></svg>
